<?xml version="1.0" encoding="UTF-8" standalone="no"?>
<!DOCTYPE svg PUBLIC "-//W3C//DTD SVG 1.1//EN"
 "http://www.w3.org/Graphics/SVG/1.1/DTD/svg11.dtd">
<!-- Generated by graphviz version 2.43.0 (0)
 -->
<!-- Title: lib/control_system/include/common_math.h Pages: 1 -->
<svg width="1072pt" height="104pt"
 viewBox="0.00 0.00 1071.50 104.00" xmlns="http://www.w3.org/2000/svg" xmlns:xlink="http://www.w3.org/1999/xlink">
<g id="page0,1_graph0" class="graph" transform="scale(1 1) rotate(0) translate(4 100)">
<title>lib/control_system/include/common_math.h</title>
<!-- Node1 -->
<g id="Node000001" class="node">
<title>Node1</title>
<g id="a_Node000001"><a xlink:title="Common mathematical functions header file.">
<polygon fill="#999999" stroke="#666666" points="587.5,-96 447.5,-96 447.5,-66 587.5,-66 587.5,-96"/>
<text text-anchor="start" x="455.5" y="-84" font-family="Helvetica,sans-Serif" font-size="10.00">lib/control_system</text>
<text text-anchor="middle" x="517.5" y="-73" font-family="Helvetica,sans-Serif" font-size="10.00">/include/common_math.h</text>
</a>
</g>
</g>
<!-- Node2 -->
<g id="Node000002" class="node">
<title>Node2</title>
<g id="a_Node000002"><a xlink:href="common__math_8c.html" target="_top" xlink:title="Common mathematical functions implementation file.">
<polygon fill="white" stroke="#666666" points="119,-30 0,-30 0,0 119,0 119,-30"/>
<text text-anchor="start" x="8" y="-18" font-family="Helvetica,sans-Serif" font-size="10.00">lib/control_system</text>
<text text-anchor="middle" x="59.5" y="-7" font-family="Helvetica,sans-Serif" font-size="10.00">/src/common_math.c</text>
</a>
</g>
</g>
<!-- Node1&#45;&gt;Node2 -->
<g id="edge1_Node000001_Node000002" class="edge">
<title>Node1&#45;&gt;Node2</title>
<g id="a_edge1_Node000001_Node000002"><a xlink:title=" ">
<path fill="none" stroke="#63b8ff" d="M436.79,-71.45C357.74,-62.66 233.99,-47.76 127.5,-30 124.77,-29.54 121.97,-29.06 119.16,-28.55"/>
<polygon fill="#63b8ff" stroke="#63b8ff" points="436.84,-74.98 447.17,-72.6 437.61,-68.02 436.84,-74.98"/>
</a>
</g>
</g>
<!-- Node3 -->
<g id="Node000003" class="node">
<title>Node3</title>
<g id="a_Node000003"><a xlink:href="kinematics_8c.html" target="_top" xlink:title="Kinematics implementation for the robot system.">
<polygon fill="white" stroke="#666666" points="268,-24.5 137,-24.5 137,-5.5 268,-5.5 268,-24.5"/>
<text text-anchor="middle" x="202.5" y="-12.5" font-family="Helvetica,sans-Serif" font-size="10.00">templates/kinematics.c</text>
</a>
</g>
</g>
<!-- Node1&#45;&gt;Node3 -->
<g id="edge2_Node000001_Node000003" class="edge">
<title>Node1&#45;&gt;Node3</title>
<g id="a_edge2_Node000001_Node000003"><a xlink:title=" ">
<path fill="none" stroke="#63b8ff" d="M438.3,-63.91C376.73,-51.4 293.75,-34.54 244.42,-24.52"/>
<polygon fill="#63b8ff" stroke="#63b8ff" points="437.88,-67.39 448.37,-65.95 439.27,-60.53 437.88,-67.39"/>
</a>
</g>
</g>
<!-- Node4 -->
<g id="Node000004" class="node">
<title>Node4</title>
<g id="a_Node000004"><a xlink:href="motor__model_8c.html" target="_top" xlink:title="Motor model implementation file.">
<polygon fill="white" stroke="#666666" points="429,-24.5 286,-24.5 286,-5.5 429,-5.5 429,-24.5"/>
<text text-anchor="middle" x="357.5" y="-12.5" font-family="Helvetica,sans-Serif" font-size="10.00">templates/motor_model.c</text>
</a>
</g>
</g>
<!-- Node1&#45;&gt;Node4 -->
<g id="edge3_Node000001_Node000004" class="edge">
<title>Node1&#45;&gt;Node4</title>
<g id="a_edge3_Node000001_Node000004"><a xlink:title=" ">
<path fill="none" stroke="#63b8ff" d="M472.75,-62.1C442.04,-49.82 402.66,-34.06 378.79,-24.52"/>
<polygon fill="#63b8ff" stroke="#63b8ff" points="471.8,-65.49 482.39,-65.95 474.4,-58.99 471.8,-65.49"/>
</a>
</g>
</g>
<!-- Node5 -->
<g id="Node000005" class="node">
<title>Node5</title>
<g id="a_Node000005"><a xlink:href="pd__controller_8c.html" target="_top" xlink:title="PD position controller implementation file.">
<polygon fill="white" stroke="#666666" points="587.5,-24.5 447.5,-24.5 447.5,-5.5 587.5,-5.5 587.5,-24.5"/>
<text text-anchor="middle" x="517.5" y="-12.5" font-family="Helvetica,sans-Serif" font-size="10.00">templates/pd_controller.c</text>
</a>
</g>
</g>
<!-- Node1&#45;&gt;Node5 -->
<g id="edge4_Node000001_Node000005" class="edge">
<title>Node1&#45;&gt;Node5</title>
<g id="a_edge4_Node000001_Node000005"><a xlink:title=" ">
<path fill="none" stroke="#63b8ff" d="M517.5,-55.6C517.5,-44.8 517.5,-32.78 517.5,-24.84"/>
<polygon fill="#63b8ff" stroke="#63b8ff" points="514,-55.8 517.5,-65.8 521,-55.8 514,-55.8"/>
</a>
</g>
</g>
<!-- Node6 -->
<g id="Node000006" class="node">
<title>Node6</title>
<g id="a_Node000006"><a xlink:href="pi__controller_8c.html" target="_top" xlink:title="PI controller implementation file.">
<polygon fill="white" stroke="#666666" points="743,-24.5 606,-24.5 606,-5.5 743,-5.5 743,-24.5"/>
<text text-anchor="middle" x="674.5" y="-12.5" font-family="Helvetica,sans-Serif" font-size="10.00">templates/pi_controller.c</text>
</a>
</g>
</g>
<!-- Node1&#45;&gt;Node6 -->
<g id="edge5_Node000001_Node000006" class="edge">
<title>Node1&#45;&gt;Node6</title>
<g id="a_edge5_Node000001_Node000006"><a xlink:title=" ">
<path fill="none" stroke="#63b8ff" d="M561.41,-62.1C591.55,-49.82 630.19,-34.06 653.61,-24.52"/>
<polygon fill="#63b8ff" stroke="#63b8ff" points="559.89,-58.94 551.95,-65.95 562.54,-65.42 559.89,-58.94"/>
</a>
</g>
</g>
<!-- Node7 -->
<g id="Node000007" class="node">
<title>Node7</title>
<g id="a_Node000007"><a xlink:href="position__controller__diff__drive_8c.html" target="_top" xlink:title="Cartesian position controller for differential drive robots implementation file.">
<polygon fill="white" stroke="#666666" points="889.5,-30 761.5,-30 761.5,0 889.5,0 889.5,-30"/>
<text text-anchor="start" x="769.5" y="-18" font-family="Helvetica,sans-Serif" font-size="10.00">templates/position</text>
<text text-anchor="middle" x="825.5" y="-7" font-family="Helvetica,sans-Serif" font-size="10.00">_controller_diff_drive.c</text>
</a>
</g>
</g>
<!-- Node1&#45;&gt;Node7 -->
<g id="edge6_Node000001_Node000007" class="edge">
<title>Node1&#45;&gt;Node7</title>
<g id="a_edge6_Node000001_Node000007"><a xlink:title=" ">
<path fill="none" stroke="#63b8ff" d="M595.16,-63.86C646.55,-53.18 713.14,-39.35 761.49,-29.3"/>
<polygon fill="#63b8ff" stroke="#63b8ff" points="594.17,-60.49 585.09,-65.95 595.59,-67.35 594.17,-60.49"/>
</a>
</g>
</g>
<!-- Node8 -->
<g id="Node000008" class="node">
<title>Node8</title>
<g id="a_Node000008"><a xlink:href="common__math__test_8c.html" target="_top" xlink:title=" ">
<polygon fill="white" stroke="#666666" points="1063.5,-30 907.5,-30 907.5,0 1063.5,0 1063.5,-30"/>
<text text-anchor="start" x="915.5" y="-18" font-family="Helvetica,sans-Serif" font-size="10.00">test/test_cs_common</text>
<text text-anchor="middle" x="985.5" y="-7" font-family="Helvetica,sans-Serif" font-size="10.00">_math/common_math_test.c</text>
</a>
</g>
</g>
<!-- Node1&#45;&gt;Node8 -->
<g id="edge7_Node000001_Node000008" class="edge">
<title>Node1&#45;&gt;Node8</title>
<g id="a_edge7_Node000001_Node000008"><a xlink:title=" ">
<path fill="none" stroke="#63b8ff" d="M597.94,-70.13C675.11,-60.5 794.89,-45.13 898.5,-30 901.38,-29.58 904.3,-29.15 907.26,-28.7"/>
<polygon fill="#63b8ff" stroke="#63b8ff" points="597.3,-66.69 587.81,-71.39 598.16,-73.63 597.3,-66.69"/>
</a>
</g>
</g>
</g>
</svg>
